<?xml version="1.0" encoding="utf-8"?>
<!-- Generator: Adobe Illustrator 18.1.1, SVG Export Plug-In . SVG Version: 6.00 Build 0)  -->
<svg version="1.1" xmlns="http://www.w3.org/2000/svg" xmlns:xlink="http://www.w3.org/1999/xlink" x="0px" y="0px"
	 viewBox="0 0 600 300" enable-background="new 0 0 600 300" xml:space="preserve">
<symbol  id="Ribbon" viewBox="-32 -32 64 64">
	<g>
		<path fill="none" stroke="#000000" stroke-width="0.25" d="M-0.4,31.9C4.9,32,6,18.2,8.7,16.7c3.1-1.6,16,4.4,19.1-1.2
			c2.8-5-9-12.4-9-15.6c0-3.3,11.6-11.1,8.8-15.9c-2.8-4.8-15.4,1.3-18.4-0.4c-3-1.7-4.1-15.6-9.5-15.5c-5.2,0-6,14-8.7,15.4
			c-3,1.6-15.8-4.5-18.8,0.9c-2.9,5.2,8.9,12.8,9,16.1c0.1,3-11.5,10.5-9,15c2.8,5,15.5-0.8,18.7,0.9C-6.3,18.1-5.6,31.8-0.4,31.9z"
			/>
		<path fill="none" stroke="#000000" stroke-width="0.25" d="M1.4,31.4c5.2-0.2,5.5-13.9,8.2-15.5c3-1.8,15.9,3.5,18.7-2.1
			c2.5-5-9.5-11.7-9.7-14.8c-0.2-3.2,10.8-11.6,7.7-16.2c-3-4.6-15.1,2.1-18.2,0.6C5.1-18.1,3.3-31.8-2-31.4
			c-5.2,0.3-5.3,14.1-7.9,15.8c-2.8,1.8-15.7-3.6-18.4,1.8c-2.6,5.2,9.4,12.1,9.7,15.3c0.2,3.1-10.7,11.1-7.9,15.5
			c3.1,4.7,15.2-1.7,18.3-0.2C-5.3,18.2-3.7,31.7,1.4,31.4z"/>
		<path fill="none" stroke="#000000" stroke-width="0.25" d="M3.2,31c5.2-0.6,4.7-14.1,7.2-15.9c2.8-2,15.9,2.6,18.3-3
			C30.9,7,18.7,1,18.3-2c-0.4-3.2,10-12.1,6.6-16.6c-3.3-4.4-14.8,3-17.9,1.7C4.1-18.2,1.5-31.6-3.7-31c-5.2,0.6-4.5,14.3-7,16.1
			c-2.7,1.9-15.7-2.7-18.1,2.7C-31-7-18.8-0.8-18.3,2.4c0.4,3.1-9.9,11.7-6.8,15.9c3.3,4.5,14.8-2.6,18-1.3
			C-4.2,18.3-1.8,31.5,3.2,31z"/>
		<path fill="none" stroke="#000000" stroke-width="0.25" d="M5,30.5c5.1-0.9,3.8-14.3,6.2-16.3c2.6-2.1,15.9,1.6,17.9-3.9
			C31.1,5.2,18.6,0,18.1-3c-0.5-3.2,9.2-12.7,5.6-16.9C20-24.1,9.1-16.1,5.9-17.2C3-18.3-0.3-31.4-5.4-30.5
			C-10.5-29.6-9.1-16-11.5-14c-2.5,2.1-15.7-1.8-17.7,3.5c-2,5.2,10.5,10.7,11.1,13.8c0.6,3.1-9.1,12.3-5.6,16.4
			c3.6,4.2,14.5-3.5,17.6-2.4C-3.1,18.3,0,31.4,5,30.5z"/>
		<path fill="none" stroke="#000000" stroke-width="0.25" d="M6.9,30c5.1-1.2,3-14.5,5.3-16.6c2.5-2.3,15.8,0.7,17.5-4.9
			C31.2,3.4,18.5-1.1,17.8-4c-0.7-3.2,8.4-13.2,4.5-17.2c-3.9-4-14.2,4.7-17.4,3.8c-3-0.9-7-13.8-11.9-12.6
			c-5.1,1.2-2.9,14.7-5.3,16.9c-2.3,2.2-15.6-0.9-17.3,4.4c-1.7,5.2,11,10,11.7,13c0.7,3.1-8.3,12.9-4.5,16.8
			c3.8,3.9,14.1-4.4,17.3-3.5C-2.1,18.4,1.9,31.2,6.9,30z"/>
		<path fill="none" stroke="#000000" stroke-width="0.25" d="M8.7,29.5c5-1.5,2.1-14.7,4.3-17c2.3-2.4,15.8-0.3,17.1-5.8
			C31.3,1.7,18.4-2.1,17.5-5c-0.9-3.1,7.6-13.7,3.4-17.5C16.8-26.3,7-17,3.8-17.7c-3-0.7-7.7-13.4-12.5-11.9
			c-5.1,1.5-2.2,14.8-4.4,17.2c-2.2,2.3-15.6,0-16.9,5.3c-1.4,5.2,11.6,9.3,12.4,12.3c0.9,3.1-7.5,13.5-3.4,17.3
			c4.1,3.7,13.8-5.3,17-4.6C-1,18.5,3.7,31,8.7,29.5z"/>
		<path fill="none" stroke="#000000" stroke-width="0.25" d="M10.5,29.1c5-1.8,1.2-14.8,3.3-17.3C16,9.2,29.6,10.5,30.6,5
			c0.9-5.2-12.3-8.2-13.3-11c-1.1-3.1,6.9-14.2,2.3-17.9C15.2-27.4,5.9-17.5,2.7-18c-3-0.5-8.4-12.9-13.2-11.2
			c-5.1,1.8-1.4,15-3.5,17.6c-2,2.5-15.5,0.9-16.5,6.1c-1,5.3,12.1,8.6,13.1,11.5c1.1,3.1-6.8,14.1-2.2,17.8
			c4.3,3.5,13.5-6.2,16.6-5.7C0.1,18.6,5.6,30.9,10.5,29.1z"/>
		<path fill="none" stroke="#000000" stroke-width="0.25" d="M12.3,28.6c4.9-2.1,0.4-15,2.4-17.7c2-2.7,15.7-2.2,16.3-7.6
			C31.6-1.9,18.2-4.2,17-7c-1.3-3.1,6.1-14.7,1.2-18.2C13.6-28.5,4.8-18,1.6-18.3c-3-0.3-9.1-12.5-13.8-10.5
			c-5.1,2.1-0.7,15.2-2.7,17.9C-16.7-8.2-30.3-9-31-3.8c-0.7,5.3,12.6,7.8,13.8,10.7c1.3,3.1-6,14.7-1.1,18.2
			C-13.8,28.4-5.2,18-2,18.3C1.2,18.7,7.4,30.7,12.3,28.6z"/>
		<path fill="none" stroke="#000000" stroke-width="0.25" d="M14.1,28.1c4.9-2.5-0.4-15.2,1.4-18.1c1.8-2.8,15.6-3.1,15.9-8.5
			C31.7-3.7,18-5.2,16.7-8c-1.5-3,5.3-15.3,0.2-18.5c-4.9-3.1-13.1,8.1-16.4,8c-3-0.1-9.8-12-14.4-9.8c-5,2.5,0.1,15.3-1.8,18.3
			c-1.7,2.7-15.4,2.7-15.8,7.9C-31.8,3.2-18.3,5-17,7.8c1.5,3.1-5.2,15.3,0.1,18.7c4.8,3,12.8-8.1,15.9-7.9
			C2.2,18.8,9.3,30.6,14.1,28.1z"/>
		<path fill="none" stroke="#000000" stroke-width="0.25" d="M-31.9-0.4C-32,4.9-18.2,6-16.7,8.7c1.6,3.1-4.4,16,1.2,19.1
			c5,2.8,12.4-9,15.6-9c3.3,0,11.1,11.6,15.9,8.8c4.8-2.8-1.3-15.4,0.4-18.4c1.7-3,15.6-4.1,15.5-9.5c0-5.2-14-6-15.4-8.7
			c-1.6-3,4.5-15.8-0.9-18.8c-5.2-2.9-12.8,8.9-16.1,9c-3,0.1-10.5-11.5-15-9c-5,2.8,0.8,15.5-0.9,18.7C-18.1-6.3-31.8-5.6-31.9-0.4
			z"/>
	</g>
</symbol>
<symbol  id="Vector_Grime_1_" viewBox="-80.3 -88.7 160.5 177.3">
	<path fill-rule="evenodd" clip-rule="evenodd" fill="#822B35" d="M-11.4,86.8c0.6,2.7-4.1,2.3-2.6,0
		C-12.5,86.9-12.3,86.3-11.4,86.8z M-12.7,68.3c1.4-0.4,2.8-0.5,2-2.3c1.7,0.4,3.3-0.7,4.5-1.6c2.4,0.6,3.8,0.1,5.5-0.6
		c0.7,2.7,3.4,3.5,5.5,4.9c-0.6,1.6-0.2,2.9,1.3,3.2c0.4,3.2-1.9,4.4-0.6,7.5c-3.3,0.7-4.3,3.7-6.8,5.2c-0.3-0.7-0.7-1.3-1.6-1.3
		c-0.9,0.2-0.8,1.4-2,1.3C-5.3,83-7,82.6-8.8,83.2c-1-2.2-2.7-3.8-4.9-4.9c1.7-1.5-0.1-3.8-1-4.9C-14,71.3-12.4,70.9-12.7,68.3z
		 M42.6,77.7c3-0.9,5.7,1.2,5.8,4.2c-2.6,0.5-5.6-1-6.2-3.6C42.5,78.3,42.6,78.1,42.6,77.7z M71.8,65c0.1,1.2,0.4,1.2,0,2.3
		c-1.8,0-2.7,1.7-4.5,2.3c-1.8,0.5-4-0.3-5.2,1.3c-0.6-1.2-2-1.6-3.6-1c-0.4-2.7-3.8-2.5-3.6-5.8c-0.6,0-1-0.1-1.3-0.3
		c-0.2-1,0.9-0.6,0.6-1.6c-0.3-0.9-1.6-0.8-1.6-2c1.9-0.7,2-3.2,2.6-5.2c2-0.8,2.5-2.9,4.5-3.6c-2.6-1-4.8-2.4-4.9-5.8
		c7-3.5,7.5,8.4,14.9,6.5c1.5,3.4,5.1,6.4,2.9,10.7c0.4,0.8,1.6,0.7,1.6,2C73.6,64.9,72.1,64.3,71.8,65z M-48.7,29.6
		c-1.9,0.4-3.4,1.2-5.2,1.6C-53.8,29.2-50,29.3-48.7,29.6z M76.7,3c0.9-1.2,3.6-0.7,3.6,1C79.5,5.6,76.7,4.8,76.7,3z M-34.8-52
		c-1.4,0.2-1.3-1.1-2.6-1c-1.5,0.5-1.7,2.5-2.3,3.9c-1.3,0.2-1.1-1-2.6-0.7c-1,0.4-1.3,1.5-1.9,2.3c-3-0.6-3.6,1.1-5.2,2
		c-0.6-0.5-0.7-1.5-1.6-1.6c-3.1,1.3-3.5-2.8-6.8-1.3c-1.1-3.7-3.9-5.8-8.1-5.5c-0.1-2,2.2-1.5,2.6-2.9c0.6-2.8-1-3.5-1.3-5.5
		c1.1-1.8,1.9-4.5,2.3-7.8c1.7,0.1,2-1.3,2.6-2.3c1.7,0.2,2.8-0.2,3.2-1.3c0.4-1.8-0.7-2.2-0.6-3.6c1.5,0.7,2.7,1.8,4.9,1.9
		c1.4-1.1,2.4-2.6,5.5-1.9c0.2,1,0.8,1.6,1.6,1.9c1-0.4,0.9-1.9,2.3-1.9c1.1,0.6-0.5,3.7,1.6,3.9c1.4,0.1,1-1.6,2.6-1.3
		c0.4,1.5,0.4,2.1,0,3.6c2.1,1.3,2.6-1.6,3.9-1c0,1.4-1.6,1.2-1.6,2.6c1.5,2-0.5,5.8,1.6,7.5c1.4,0.7,6.1-1,8.1,0.7
		C-33.2-63.2-38.3-57.4-34.8-52z M39-51.3c1.6-2.4,4.2-0.7,7.8-1.3C45.9-50.5,41.5-50.8,39-51.3z M-26.6-64.3c2.3-0.4,4.7-0.7,7.1-1
		C-20.5-63.8-24.7-63.8-26.6-64.3z M-75.7-73.4c-1.2,2.4-4.3,0.5-4.5-1.3c-0.3-2.3,2.2-2.9,2.3-4.9c4.3-1.4,3.9,3.9,5.8,5.8
		c-0.2,0.5-0.5,0.8-0.7,1.3C-74.3-72.2-74.9-72.9-75.7-73.4z M36.7-78.3c0.1-1.8,3.3-2,4.2-2C40.4-78.7,38.4-78.6,36.7-78.3z
		 M25.7-88.7c-0.7,2.8-1.7,5.3-3.2,7.1C23.1-84.4,24.2-86.7,25.7-88.7z M58.2,40.6v1.3c-1.8,0.6-1.5,0.4-3.2-0.6
		c-1.2,0.9-2.1,0.2-3.2,1c-0.5-1.4-1.5-2.4-3.9-2c-1.1-2.7-4.2-4.7-4.2-8.1c0-1.8,1.9-3.6,0.7-5.2c-5.4,5.7-18.1-0.3-24.7,1.6
		c0.8,2.5,2.1,4.6,2.9,7.1c1.2,0.3,2.7,1.7,1.6,3.2c-4.4-1.5-4.3-7.4-8.8-8.8c-1.8,2-3.7,2.5-5.8,4.5c-0.2,4.8-2.5,7.1-4.2,10.1
		c-0.7,1.2-0.4,2.9-2.3,2.9c-0.2-0.5-0.5-0.8-1-1c-0.3-1.9,0.9-2.3,0.6-4.2c-3.3-1.8-9,0.5-12.7,2.3c-0.4-2,0.7-2.5,0.6-4.2
		c-3.4-1.7-5.5,0.8-8.8-0.6c-1.8,1.1-2.5,3.4-4.9,3.9c-2.2,1.8-2.5,5.5-5.2,6.8c-0.1-2.2,1-2.5,2-3.9c1.1-1.6,2.1-4.5,3.2-5.9
		c1.5-1.8,3.4-2.4,3.3-4.2c-0.2-2.5-3-2.6-5.2-3.9c-2-9-12.3-6.2-19.5-3.9c4.2-2.2,9.7-3.1,13.3-5.8c-2.4-1.9-4.7-4-6.2-6.8
		c-1.9,0.1-2.4,1.7-4.9,1.3c-0.3-1.8,1.8-1.3,2.3-2.3c-5-1.2-7.1,3.2-12.7,2.3c-0.1,0.5-0.5,0.5-0.7,1c-0.2,1.2,0.7,1.2,0.7,2.3
		c-1.4,1.1-2.6,2.6-2.3,4.5c-2.3,1.1-4.3,2.5-4.6,5.5c-1.6,0.3-0.9-1.7-2.6-1.3c-0.9,2.7-2.5,0.9-4.9,2c-0.4-0.5-0.4-1.3-1-1.6
		c-3.5,0.8-3.5-1.9-5.5-2.6c-2.2,0.8-3.3,2.6-5.8,1.6c0.1-1.8,3.1-0.6,3.6-1.9c-1.2-3-2-6.4-3.6-9.1c1.3-0.9,2.1-2.8,1.3-4.9
		c2-1.9,4.1-4,4.9-6.2c1.2-0.2,1.2,0.7,2.3,0.6c1-0.7,2-1.5,2.3-2.9c3.2,1.7,6.7,1.5,10.1,2.3c0.5,0.4,0.1,1.8,0.7,2.3
		c1,0.1,1.8,0.3,2.6,0.6c0.8,0.4-0.3,1.6,0.3,1.6c4.5-0.6,11.5,0,14.9-2.9c1-3.5,1.8-7,0-10.4c-0.6-0.4-2.2,0.2-3.6,0
		c-0.8,0.3-0.6,1.6-1.6,1.6c-5.7-1-9.6-3.8-11.4-8.8c0.3-1.7,0.6-3.5,0.7-5.5c1.5-3.2,5-4.5,7.1-7.1c0.7,1.3,3.1,1.1,4.2,0.3
		c3.7,1.9,7.2,3.8,8.4,8.1c4.9,0,5-4.7,8.1-6.5c-0.9-4.9-2.4-9.1-3.6-13.6c2.4,1.9,3.3,5.9,3.9,10.4c1.3,0.4,2.3,1.2,3.6,1.6
		c0.8-0.8,2.2-1.1,2.3-2.6c0-1.2-1.2-1.2-1.3-2.3c3.8,0.4,9.9,0.8,9.4-5.2c1.9-0.6,1.2,1.4,2.6,1.3c3.1-2.2,3.8-11.5,2-14.6
		c-1.9,2.4-1.7,6.3-5.5,5.8c-3.8-0.4-4.5-5.9-1.9-9.1c3.3-1.1,6.3-3.2,8.1,0.6c3.4-3,1.3-10.4-2-12.3c-1.3-0.3-2.6-0.6-2.9-1.9
		c0.3-0.1,0.4-0.3,0.3-0.6c1.2-0.7,3.5-0.2,5.2-0.3c0.9-1.6,2.2-2.8,2.3-5.2c-0.9-1-3.7-2-2.9-3.6c0.9,1.7,4.4,2.1,6.2,1
		c0.1-1.2,0.4-2.2,0.7-3.2c2.3-0.9,4.2-3,7.1-2.3c0.8-1,0.4-3.2,1.6-3.9c1.9-0.1,1.3,2.2,3.2,2c0.8-1-0.3-3.8,1.6-3.6
		c1.3,0.4,0.7,2.7,1.6,3.6c2.7,0.7,4.3-0.1,6.8,0c0.4-0.5,0.4-1.3,1-1.6c0.2,0.6-1,1.3,0,1.6c1.4,0,1.4-1.4,3.2-1
		c0,1.4-0.7,2.4,0,3.6c6.2,0.4,6.8,6.4,10.1,9.7c4,0.7,6.6-1.6,9.1-1.3c-1.2,0.7-3,0.7-3.6,2c0.7,0.9,2.4,1.2,1.6,2.6
		c-2.1,0.1-2.7-1.2-3.9-1.9c-1,0.7-3.1,0.4-3.6,1.6c-0.4,2.4,1.1,3,1.9,4.2c-0.3,1.6-1.4,2.3-1.3,4.2c0.2,1.3,2.4,0.7,2.3,2.3
		c-0.1,1.3-2.1,0.7-2.9,1.3c-0.4,2.4,0.2,2.6,0.3,4.9c-2.2,0.6-4.1,1.5-3.9,4.5c-2.6,0.4-4.8,1.1-4.5,4.2c-0.6,0.8-2.1,0.7-2.6,1.6
		c0.4,0.1,1.1,1.4,0.3,1.6c-0.7-2-4.5-0.5-5.5,0.3c-1.3-0.2-1.3-1.8-2.9-1.6c-0.1,0.6-0.7,0.8-0.6,1.6c2.3,1.5,6.7,0.9,9.1,2.3
		c0,3.5-1.7,6.9,0.3,10.4c0.3,0,0.4,0.3,0.6,0.3c0.5-0.6,1.4-0.8,2.6-0.6c2.8-4,7.8-4.1,11.7-6.8c-2.1,3.8-10.9,3.6-9.7,11.7
		c-2.1,0.5-1.7-2.9-3.2-1.9c0.7,2.6,3.6,3.1,4.9,5.2c7.9,2.3,13-4.9,20.5-2.3c2.2,9-14,7.1-14.6,13.6c-0.4,4,3.3,2.8,5.8,3.9
		c-0.8,2.6-4.6,0.6-5.8,2.3c-0.1,2.9,2.6,2.8,4.2,3.9c-0.5,3.2,2,3.4,3.3,5.5c-0.8,1.7-3.8,1.2-4.2,3.2c1.8,2.6,4.3,8.1,8.4,5.2
		c1.9,1.5,3.1,0,4.5-1.3c1.2,1.4,2.4,0.7,4.2,0.3c2.2,2.8,7.4,5,5.5,9.7c0.1,1.3,1.3,1.5,1.3,2.9C62,36,61.7,39.9,58.2,40.6z
		 M6.8-33.8c1,0.3,3,0.1,2.9-1.6C8.6-36.2,7-35,6.8-33.8z M28.3-18.2c1.5-0.5,1.5-2.6,2.3-3.9C29-21.7,26.6-19.8,28.3-18.2z
		 M-14.6-35.4c-2.5-1.5-5.8-3.9-6.8-5.8C-19-39.4-16.2-38-14.6-35.4z M-26-61.7c0.7,0.6,4.8-0.7,5.5,1C-22.4-60.7-26.3-60.5-26-61.7
		z"/>
</symbol>
<g id="Layer_1">
	
		<use xlink:href="#Vector_Grime_1_"  width="160.5" height="177.3" id="XMLID_1_" x="-80.3" y="-88.7" transform="matrix(1 0 0 -1 23.0001 30.9999)" display="none" overflow="visible"/>
</g>
<g id="Layer_2">
</g>
<g id="Non_Editable_Symbol_Art">
	<g id="Vector_Grime">
	</g>
	<polygon opacity="0.75" fill-rule="evenodd" clip-rule="evenodd" fill="#94474F" points="262.8,128.3 231.7,225 281,285 
		489.5,292.3 445.7,123.7 	"/>
	<polygon opacity="0.75" fill-rule="evenodd" clip-rule="evenodd" fill="#658EC9" points="155.7,158.3 211.5,204.8 328.3,119.7 
		338.3,26.3 266.3,13 199.7,13 142.3,40 	"/>
	<path opacity="0.75" fill-rule="evenodd" clip-rule="evenodd" fill="#CE6661" d="M300,64.2c0,0-111,74.3,39.7,101.9
		c0,0,71.6,5.5,80.8,74.6l69,23.7l-3.8-108.7l-10-68l-70-66H300V64.2z"/>
	<path opacity="0.75" fill-rule="evenodd" clip-rule="evenodd" fill="#6AC9CC" d="M213.8,28.8L267,83.2l52-32.8
		c0,0,52.7-58.8,85.3,5.6l-54,53.5l84.7,19.7l21,11.1l44.3-38l3.3-81.3l-9.3-21H223.7C223.7,0,203.5,18.3,213.8,28.8z"/>
	
		<use xlink:href="#Ribbon"  width="64" height="64" x="-32" y="-32" transform="matrix(4.7629 0 0 -4.7629 451.0414 152.9729)" overflow="visible"/>
	<path opacity="0.75" fill-rule="evenodd" clip-rule="evenodd" fill="#B868AA" d="M265.1,197.6c0,0,42.6-8,41.2,32.7
		c0,0-35.3,54,21.3,42c0,0,28-78.2,53-43L379,300H97.5C97.5,300,207.9,172.9,265.1,197.6z"/>
	<path opacity="0.75" fill-rule="evenodd" clip-rule="evenodd" fill="#D8945C" d="M174.1,111.9c0,0-22.5,60.4,51.5,52.4l62-14.3
		c0,0-33,101-94.2,98c0,0-193.8,42.3-135.8-55C57.7,193-3.4-5.2,174.1,111.9z"/>
	
		<use xlink:href="#Ribbon"  width="64" height="64" x="-32" y="-32" transform="matrix(4.819 0 0 -4.819 142.3244 159.661)" overflow="visible"/>
	<path opacity="0.75" fill-rule="evenodd" clip-rule="evenodd" fill="#DBD85D" d="M73.7,125c0,0,11.3-34.7,77.3-23.3
		c0,0-26.7,72.7,52-22c0,0-61.4-6.7-21.7-34c0,0,87.7-39.3,42.4-45.7H104.1c0,0-131.8,5.7-71.8,29.7C32.3,29.7,21,145.6,73.7,125z"
		/>
	<path opacity="0.75" fill-rule="evenodd" clip-rule="evenodd" fill="#666766" d="M0,70.5c0,0,9,21.5,35.5,8.5c0,0,5-24,28-13
		l23,10.5L69,20.5c0,0-4.5-17,21.5-5.5c0,0-8-22,48-15H0V70.5z"/>
	<path opacity="0.75" fill-rule="evenodd" clip-rule="evenodd" fill="#EE3525" d="M0,157.5V300h97.5l96-52l-85,1.5l33.8-25.5
		c0,0-16.3-21.5-62.8-3l24.5-20l-41-69L0,157.5z"/>
	<path opacity="0.75" fill-rule="evenodd" clip-rule="evenodd" fill="#8E1926" d="M86.5,76.5c0,0-87.5-9.5,5,63.5
		c0,0,105.5,77.5,12.5,61l-41-69l-18,93.5c0,0,32.5,90.5-36.5-45.5l5.5-23l-14,0.5v-87C0,70.5,32.5,21.5,86.5,76.5z"/>
	<path opacity="0.75" fill-rule="evenodd" clip-rule="evenodd" fill="#304876" d="M600,63v161.5c0,0-132,46-102.5-17.5l8.5-88
		l-48,66.5c0,0-156.9-50.5,1.8-58l48.2-48L566.5,40L600,63z"/>
	<path opacity="0.75" fill-rule="evenodd" clip-rule="evenodd" fill="#31773F" d="M485,0c0,0-30.1-3.5-17.1,33.5c0,0-61.9,33-8.1,94
		l48.2-48l52,106c0,0,45.5-54.6,15.5-92.8l5-31.7l13,20l6.5-18V0H485z"/>
	<path opacity="0.75" fill-rule="evenodd" clip-rule="evenodd" fill="#4A3072" d="M600,224.5V300H379l1.7-70.7l37.7,53l4-78.7
		l45,48.2c0,0-62.3-70.5-45.2-80.2l35.8,13.8l51-76L497.5,207c0,0,78.8-31.9,53.1,30.6C550.6,237.6,583.2,230.2,600,224.5z"/>
</g>
</svg>
